<mxfile host="www.draw.io" modified="2019-10-15T07:50:56.489Z" agent="Mozilla/5.0 (Windows NT 10.0; Win64; x64) AppleWebKit/537.36 (KHTML, like Gecko) Chrome/77.0.3865.90 Safari/537.36" etag="lmdotKGibPPxPMvbEc33" version="12.1.1" type="github" pages="1">
  <diagram id="fcCInd9inY6O_KW5-x8d" name="Page-1">
    <mxGraphModel dx="1202" dy="436" grid="1" gridSize="10" guides="1" tooltips="1" connect="1" arrows="1" fold="1" page="1" pageScale="1" pageWidth="850" pageHeight="1100" math="0" shadow="0">
      <root>
        <mxCell id="0"/>
        <mxCell id="1" parent="0"/>
        <mxCell id="N0TpUCJUA2DDhoYbRCBP-1" value="用户维度表" style="swimlane;fontStyle=0;childLayout=stackLayout;horizontal=1;startSize=26;fillColor=#e0e0e0;horizontalStack=0;resizeParent=1;resizeParentMax=0;resizeLast=0;collapsible=1;marginBottom=0;swimlaneFillColor=#ffffff;align=center;fontSize=14;" vertex="1" parent="1">
          <mxGeometry x="40" y="70" width="160" height="548" as="geometry"/>
        </mxCell>
        <mxCell id="N0TpUCJUA2DDhoYbRCBP-2" value="用户ID" style="text;strokeColor=none;fillColor=none;spacingLeft=4;spacingRight=4;overflow=hidden;rotatable=0;points=[[0,0.5],[1,0.5]];portConstraint=eastwest;fontSize=12;" vertex="1" parent="N0TpUCJUA2DDhoYbRCBP-1">
          <mxGeometry y="26" width="160" height="26" as="geometry"/>
        </mxCell>
        <mxCell id="N0TpUCJUA2DDhoYbRCBP-3" value="客户ID" style="text;strokeColor=none;fillColor=none;spacingLeft=4;spacingRight=4;overflow=hidden;rotatable=0;points=[[0,0.5],[1,0.5]];portConstraint=eastwest;fontSize=12;" vertex="1" parent="N0TpUCJUA2DDhoYbRCBP-1">
          <mxGeometry y="52" width="160" height="26" as="geometry"/>
        </mxCell>
        <mxCell id="N0TpUCJUA2DDhoYbRCBP-4" value="账户ID" style="text;strokeColor=none;fillColor=none;spacingLeft=4;spacingRight=4;overflow=hidden;rotatable=0;points=[[0,0.5],[1,0.5]];portConstraint=eastwest;fontSize=12;" vertex="1" parent="N0TpUCJUA2DDhoYbRCBP-1">
          <mxGeometry y="78" width="160" height="26" as="geometry"/>
        </mxCell>
        <mxCell id="N0TpUCJUA2DDhoYbRCBP-5" value="手机号" style="text;strokeColor=none;fillColor=none;spacingLeft=4;spacingRight=4;overflow=hidden;rotatable=0;points=[[0,0.5],[1,0.5]];portConstraint=eastwest;fontSize=12;" vertex="1" parent="N0TpUCJUA2DDhoYbRCBP-1">
          <mxGeometry y="104" width="160" height="26" as="geometry"/>
        </mxCell>
        <mxCell id="N0TpUCJUA2DDhoYbRCBP-6" value="客户名" style="text;strokeColor=none;fillColor=none;spacingLeft=4;spacingRight=4;overflow=hidden;rotatable=0;points=[[0,0.5],[1,0.5]];portConstraint=eastwest;fontSize=12;" vertex="1" parent="N0TpUCJUA2DDhoYbRCBP-1">
          <mxGeometry y="130" width="160" height="26" as="geometry"/>
        </mxCell>
        <mxCell id="N0TpUCJUA2DDhoYbRCBP-7" value="性别" style="text;strokeColor=none;fillColor=none;spacingLeft=4;spacingRight=4;overflow=hidden;rotatable=0;points=[[0,0.5],[1,0.5]];portConstraint=eastwest;fontSize=12;" vertex="1" parent="N0TpUCJUA2DDhoYbRCBP-1">
          <mxGeometry y="156" width="160" height="26" as="geometry"/>
        </mxCell>
        <mxCell id="N0TpUCJUA2DDhoYbRCBP-8" value="生日" style="text;strokeColor=none;fillColor=none;spacingLeft=4;spacingRight=4;overflow=hidden;rotatable=0;points=[[0,0.5],[1,0.5]];portConstraint=eastwest;fontSize=12;" vertex="1" parent="N0TpUCJUA2DDhoYbRCBP-1">
          <mxGeometry y="182" width="160" height="26" as="geometry"/>
        </mxCell>
        <mxCell id="N0TpUCJUA2DDhoYbRCBP-9" value="星座" style="text;strokeColor=none;fillColor=none;spacingLeft=4;spacingRight=4;overflow=hidden;rotatable=0;points=[[0,0.5],[1,0.5]];portConstraint=eastwest;fontSize=12;" vertex="1" parent="N0TpUCJUA2DDhoYbRCBP-1">
          <mxGeometry y="208" width="160" height="26" as="geometry"/>
        </mxCell>
        <mxCell id="N0TpUCJUA2DDhoYbRCBP-10" value="年龄" style="text;strokeColor=none;fillColor=none;spacingLeft=4;spacingRight=4;overflow=hidden;rotatable=0;points=[[0,0.5],[1,0.5]];portConstraint=eastwest;fontSize=12;" vertex="1" parent="N0TpUCJUA2DDhoYbRCBP-1">
          <mxGeometry y="234" width="160" height="26" as="geometry"/>
        </mxCell>
        <mxCell id="N0TpUCJUA2DDhoYbRCBP-12" value="手机运营商" style="text;strokeColor=none;fillColor=none;spacingLeft=4;spacingRight=4;overflow=hidden;rotatable=0;points=[[0,0.5],[1,0.5]];portConstraint=eastwest;fontSize=12;" vertex="1" parent="N0TpUCJUA2DDhoYbRCBP-1">
          <mxGeometry y="260" width="160" height="26" as="geometry"/>
        </mxCell>
        <mxCell id="N0TpUCJUA2DDhoYbRCBP-14" value="手机省份" style="text;strokeColor=none;fillColor=none;spacingLeft=4;spacingRight=4;overflow=hidden;rotatable=0;points=[[0,0.5],[1,0.5]];portConstraint=eastwest;fontSize=12;" vertex="1" parent="N0TpUCJUA2DDhoYbRCBP-1">
          <mxGeometry y="286" width="160" height="28" as="geometry"/>
        </mxCell>
        <mxCell id="N0TpUCJUA2DDhoYbRCBP-15" value="手机地市" style="text;strokeColor=none;fillColor=none;spacingLeft=4;spacingRight=4;overflow=hidden;rotatable=0;points=[[0,0.5],[1,0.5]];portConstraint=eastwest;fontSize=12;" vertex="1" parent="N0TpUCJUA2DDhoYbRCBP-1">
          <mxGeometry y="314" width="160" height="26" as="geometry"/>
        </mxCell>
        <mxCell id="N0TpUCJUA2DDhoYbRCBP-11" value="注册渠道" style="text;strokeColor=none;fillColor=none;spacingLeft=4;spacingRight=4;overflow=hidden;rotatable=0;points=[[0,0.5],[1,0.5]];portConstraint=eastwest;fontSize=12;" vertex="1" parent="N0TpUCJUA2DDhoYbRCBP-1">
          <mxGeometry y="340" width="160" height="26" as="geometry"/>
        </mxCell>
        <mxCell id="N0TpUCJUA2DDhoYbRCBP-16" value="注册时间" style="text;strokeColor=none;fillColor=none;spacingLeft=4;spacingRight=4;overflow=hidden;rotatable=0;points=[[0,0.5],[1,0.5]];portConstraint=eastwest;fontSize=12;" vertex="1" parent="N0TpUCJUA2DDhoYbRCBP-1">
          <mxGeometry y="366" width="160" height="26" as="geometry"/>
        </mxCell>
        <mxCell id="N0TpUCJUA2DDhoYbRCBP-17" value="注册天数" style="text;strokeColor=none;fillColor=none;spacingLeft=4;spacingRight=4;overflow=hidden;rotatable=0;points=[[0,0.5],[1,0.5]];portConstraint=eastwest;fontSize=12;" vertex="1" parent="N0TpUCJUA2DDhoYbRCBP-1">
          <mxGeometry y="392" width="160" height="26" as="geometry"/>
        </mxCell>
        <mxCell id="N0TpUCJUA2DDhoYbRCBP-18" value="账龄" style="text;strokeColor=none;fillColor=none;spacingLeft=4;spacingRight=4;overflow=hidden;rotatable=0;points=[[0,0.5],[1,0.5]];portConstraint=eastwest;fontSize=12;" vertex="1" parent="N0TpUCJUA2DDhoYbRCBP-1">
          <mxGeometry y="418" width="160" height="26" as="geometry"/>
        </mxCell>
        <mxCell id="N0TpUCJUA2DDhoYbRCBP-19" value="用户得分" style="text;strokeColor=none;fillColor=none;spacingLeft=4;spacingRight=4;overflow=hidden;rotatable=0;points=[[0,0.5],[1,0.5]];portConstraint=eastwest;fontSize=12;" vertex="1" parent="N0TpUCJUA2DDhoYbRCBP-1">
          <mxGeometry y="444" width="160" height="26" as="geometry"/>
        </mxCell>
        <mxCell id="N0TpUCJUA2DDhoYbRCBP-20" value="birth_dt" style="text;strokeColor=none;fillColor=none;spacingLeft=4;spacingRight=4;overflow=hidden;rotatable=0;points=[[0,0.5],[1,0.5]];portConstraint=eastwest;fontSize=12;" vertex="1" parent="N0TpUCJUA2DDhoYbRCBP-1">
          <mxGeometry y="470" width="160" height="26" as="geometry"/>
        </mxCell>
        <mxCell id="N0TpUCJUA2DDhoYbRCBP-21" value="birth_dt" style="text;strokeColor=none;fillColor=none;spacingLeft=4;spacingRight=4;overflow=hidden;rotatable=0;points=[[0,0.5],[1,0.5]];portConstraint=eastwest;fontSize=12;" vertex="1" parent="N0TpUCJUA2DDhoYbRCBP-1">
          <mxGeometry y="496" width="160" height="26" as="geometry"/>
        </mxCell>
        <mxCell id="N0TpUCJUA2DDhoYbRCBP-13" value="birth_dt" style="text;strokeColor=none;fillColor=none;spacingLeft=4;spacingRight=4;overflow=hidden;rotatable=0;points=[[0,0.5],[1,0.5]];portConstraint=eastwest;fontSize=12;" vertex="1" parent="N0TpUCJUA2DDhoYbRCBP-1">
          <mxGeometry y="522" width="160" height="26" as="geometry"/>
        </mxCell>
      </root>
    </mxGraphModel>
  </diagram>
</mxfile>
